<svg viewBox="0 0 18 18" class="" id="FxSymbol0-01c" data-type="1"><path fill="#FFF" d="M.5 1h17v11H.5z"></path><path fill="#0078D4" d="M17.4.7H.6c-.3 0-.6.2-.6.6v10.8c0 .3.3.6.6.6h16.8c.3 0 .6-.3.6-.6V1.3c0-.4-.3-.6-.6-.6M17 11.4q0 .3-.3.3H1.3q-.3 0-.3-.3V2q0-.3.3-.3h15.3c.3 0 .4.1.4.3z"></path><path fill="#005ba1" d="M5.4 16.3c-.5.1-.9.5-.9 1h9c0-.5-.4-.9-.9-1-1.8-.3-1.9-1.6-1.8-3.6H7.2c0 2.1 0 3.3-1.8 3.6"></path><circle cx="5.5" cy="6.8" r="3" fill="#50e6ff"></circle><path fill="#0078D4" d="M8.5 6.8a3 3 0 0 0-3-3v3"></path><path fill="#005ba1" d="M7.5 9.04a3 3 0 0 0 1-2.24h-3"></path><circle cx="5.5" cy="6.8" r="1.7" fill="#fff"></circle><path fill="#005ba1" d="m11.354 5.425.394.307-1.231 1.577L10.123 7zm.5.068.366-.34 1.364 1.462-.366.341z"></path><path fill="#005ba1" d="m14.75 3.952.433.25-1.5 2.598-.433-.25z"></path><circle cx="10.5" cy="7" r=".6" fill="#50e6ff"></circle><circle cx="11.9" cy="5.2" r=".6" fill="#50e6ff"></circle><circle cx="13.4" cy="6.8" r=".6" fill="#50e6ff"></circle><circle cx="14.9" cy="4" r=".6" fill="#50e6ff"></circle><path fill="#005ba1" d="M10.1 7.8h.9v1.7h-.9zm1.5-.9h.9v2.6h-.9zm1.4.9h.9v1.7H13zM14.4 6h.9v3.5h-.9z"></path></svg>