<svg viewBox="0 0 18 18" class="" id="FxSymbol0-01e" data-type="1"><defs></defs><title>Icon-identity-223</title><path fill="#0078d4" d="M17.22 13.92a.79.79 0 0 0 .8-.79A.3.3 0 0 0 18 13c-.31-2.5-1.74-4.54-4.46-4.54S9.35 10.22 9.07 13a.81.81 0 0 0 .72.88h7.43Z"></path><path fill="#fff" d="M13.55 9.09a2.44 2.44 0 0 1-1.36-.4l1.35 3.52 1.33-3.49a2.54 2.54 0 0 1-1.32.37" opacity=".8"></path><circle cx="13.55" cy="6.58" r="2.51" fill="#0078d4"></circle><path fill="#0078D4" d="M12.19 16.36a1.19 1.19 0 0 0 1.19-1.19.7.7 0 0 0 0-.14c-.47-3.74-2.6-6.78-6.66-6.78S.44 10.83 0 15a1.2 1.2 0 0 0 1.07 1.31h11.1Z"></path><path fill="#fff" d="M6.77 9.14a3.7 3.7 0 0 1-2-.6l2 5.25 2-5.21a3.8 3.8 0 0 1-2 .56" opacity=".8"></path><circle cx="6.74" cy="5.39" r="3.75" fill="#0078D4"></circle></svg>